<?xml version="1.0" standalone="no"?>
<!DOCTYPE svg PUBLIC "-//W3C//DTD SVG 20010904//EN"
 "http://www.w3.org/TR/2001/REC-SVG-20010904/DTD/svg10.dtd">
<svg version="1.0" xmlns="http://www.w3.org/2000/svg"
 width="200.000000pt" height="200.000000pt" viewBox="0 0 200.000000 200.000000"
 preserveAspectRatio="xMidYMid meet">

<g transform="translate(0.000000,200.000000) scale(0.100000,-0.100000)"
fill="#000000" stroke="none">
<path d="M500 1410 c0 -57 4 -90 11 -90 5 0 7 -4 4 -10 -4 -7 160 -10 485 -10
325 0 489 3 485 10 -3 6 -1 10 4 10 7 0 11 33 11 90 l0 90 -500 0 -500 0 0
-90z"/>
<path d="M500 1000 l0 -100 500 0 500 0 0 100 0 100 -500 0 -500 0 0 -100z"/>
<path d="M515 690 c3 -5 1 -10 -4 -10 -7 0 -11 -33 -11 -90 l0 -90 500 0 501
0 -3 98 -3 97 -493 3 c-330 1 -491 -1 -487 -8z"/>
</g>
</svg>
